<mxfile modified="2021-08-31T07:45:21.309Z" host="app.diagrams.net" agent="5.0 (Macintosh; Intel Mac OS X 10_15_7) AppleWebKit/537.36 (KHTML, like Gecko) Chrome/92.0.4515.107 Safari/537.36 Edg/92.0.902.62" etag="ulbkOI2GTKe9TIqoEVM7" version="14.9.6" type="github">
  <diagram id="Ht1M8jgEwFfnCIfOTk4-" name="Page-1">
    <mxGraphModel dx="1505" dy="455" grid="1" gridSize="10" guides="1" tooltips="1" connect="1" arrows="1" fold="1" page="1" pageScale="1" pageWidth="827" pageHeight="1169" math="0" shadow="0">
      <root>
        <mxCell id="0" />
        <mxCell id="1" parent="0" />
        <mxCell id="sR6iaG6ek7NB8Ki9UmXm-1" value="" style="shape=image;verticalLabelPosition=bottom;labelBackgroundColor=#ffffff;verticalAlign=top;aspect=fixed;imageAspect=0;image=https://bce.bdstatic.com/p3m/common-service/uploads/AI%E4%B8%AD%E5%8F%B0-%E6%9E%B6%E6%9E%84%E5%9B%BE_edd81eb.png;" vertex="1" parent="1">
          <mxGeometry x="-580" y="350" width="498.21" height="320.96" as="geometry" />
        </mxCell>
        <mxCell id="sR6iaG6ek7NB8Ki9UmXm-3" value="公有云" style="rounded=0;whiteSpace=wrap;html=1;" vertex="1" parent="1">
          <mxGeometry x="-540" y="1010" width="70" height="20" as="geometry" />
        </mxCell>
        <mxCell id="sR6iaG6ek7NB8Ki9UmXm-4" value="私有云" style="rounded=0;whiteSpace=wrap;html=1;" vertex="1" parent="1">
          <mxGeometry x="-460" y="1010" width="70" height="20" as="geometry" />
        </mxCell>
        <mxCell id="sR6iaG6ek7NB8Ki9UmXm-5" value="CPU" style="rounded=0;whiteSpace=wrap;html=1;" vertex="1" parent="1">
          <mxGeometry x="-380" y="1010" width="70" height="20" as="geometry" />
        </mxCell>
        <mxCell id="sR6iaG6ek7NB8Ki9UmXm-6" value="GPU" style="rounded=0;whiteSpace=wrap;html=1;" vertex="1" parent="1">
          <mxGeometry x="-300" y="1010" width="70" height="20" as="geometry" />
        </mxCell>
        <mxCell id="sR6iaG6ek7NB8Ki9UmXm-7" value="&lt;div&gt;&lt;span&gt;.....&lt;/span&gt;&lt;/div&gt;" style="rounded=0;whiteSpace=wrap;html=1;align=center;" vertex="1" parent="1">
          <mxGeometry x="-220" y="1010" width="70" height="20" as="geometry" />
        </mxCell>
        <mxCell id="sR6iaG6ek7NB8Ki9UmXm-8" value="算力" style="rounded=0;whiteSpace=wrap;html=1;fillColor=#dae8fc;strokeColor=#6c8ebf;" vertex="1" parent="1">
          <mxGeometry x="-570" y="1010" width="20" height="20" as="geometry" />
        </mxCell>
        <mxCell id="sR6iaG6ek7NB8Ki9UmXm-9" value="账号权限" style="whiteSpace=wrap;html=1;aspect=fixed;" vertex="1" parent="1">
          <mxGeometry x="-140" y="970" width="60" height="60" as="geometry" />
        </mxCell>
        <mxCell id="sR6iaG6ek7NB8Ki9UmXm-11" value="运营管理" style="whiteSpace=wrap;html=1;aspect=fixed;" vertex="1" parent="1">
          <mxGeometry x="-140" y="900" width="60" height="60" as="geometry" />
        </mxCell>
        <mxCell id="sR6iaG6ek7NB8Ki9UmXm-12" value="公有云" style="rounded=0;whiteSpace=wrap;html=1;" vertex="1" parent="1">
          <mxGeometry x="-540" y="970" width="70" height="20" as="geometry" />
        </mxCell>
        <mxCell id="sR6iaG6ek7NB8Ki9UmXm-13" value="公有云" style="rounded=0;whiteSpace=wrap;html=1;" vertex="1" parent="1">
          <mxGeometry x="-460" y="970" width="70" height="20" as="geometry" />
        </mxCell>
        <mxCell id="sR6iaG6ek7NB8Ki9UmXm-14" value="数据集成" style="rounded=0;whiteSpace=wrap;html=1;" vertex="1" parent="1">
          <mxGeometry x="-320" y="940" width="50" height="20" as="geometry" />
        </mxCell>
        <mxCell id="sR6iaG6ek7NB8Ki9UmXm-15" value="数据清洗" style="rounded=0;whiteSpace=wrap;html=1;" vertex="1" parent="1">
          <mxGeometry x="-260" y="940" width="50" height="20" as="geometry" />
        </mxCell>
        <mxCell id="sR6iaG6ek7NB8Ki9UmXm-16" value="数据归类" style="rounded=0;whiteSpace=wrap;html=1;" vertex="1" parent="1">
          <mxGeometry x="-200" y="940" width="50" height="20" as="geometry" />
        </mxCell>
        <mxCell id="sR6iaG6ek7NB8Ki9UmXm-17" value="数据标注" style="rounded=0;whiteSpace=wrap;html=1;" vertex="1" parent="1">
          <mxGeometry x="-320" y="970" width="50" height="20" as="geometry" />
        </mxCell>
        <mxCell id="sR6iaG6ek7NB8Ki9UmXm-18" value="数据计算" style="rounded=0;whiteSpace=wrap;html=1;" vertex="1" parent="1">
          <mxGeometry x="-260" y="970" width="50" height="20" as="geometry" />
        </mxCell>
        <mxCell id="sR6iaG6ek7NB8Ki9UmXm-19" value="数据标注" style="rounded=0;whiteSpace=wrap;html=1;" vertex="1" parent="1">
          <mxGeometry x="-200" y="970" width="50" height="20" as="geometry" />
        </mxCell>
        <mxCell id="sR6iaG6ek7NB8Ki9UmXm-21" value="运维管理" style="whiteSpace=wrap;html=1;aspect=fixed;" vertex="1" parent="1">
          <mxGeometry x="-140" y="830" width="60" height="60" as="geometry" />
        </mxCell>
        <mxCell id="sR6iaG6ek7NB8Ki9UmXm-22" value="资源管理" style="whiteSpace=wrap;html=1;aspect=fixed;" vertex="1" parent="1">
          <mxGeometry x="-140" y="760" width="60" height="60" as="geometry" />
        </mxCell>
      </root>
    </mxGraphModel>
  </diagram>
</mxfile>
